<?xml version="1.0" encoding="utf-8"?>
<!-- Generator: Adobe Illustrator 24.1.3, SVG Export Plug-In . SVG Version: 6.00 Build 0)  -->
<svg version="1.1" id="Layer_1" xmlns="http://www.w3.org/2000/svg" xmlns:xlink="http://www.w3.org/1999/xlink" x="0px" y="0px"
	 viewBox="0 0 35.3 6.8" style="enable-background:new 0 0 35.3 6.8;" xml:space="preserve">
<path d="M34.8,1.4l-1.1-0.6l-1.1-0.6c-0.5-0.3-1.2-0.1-1.5,0.4c-0.1,0.2-0.1,0.3-0.1,0.5v0.1c0,0.1,0,0.1,0.1,0.2l0.5,0.3
	c0.1,0.1,0.2,0,0.3-0.1c0,0,0,0,0,0c0,0,0-0.1,0-0.1V1.2C31.9,1.1,32,1,32.1,1c0,0,0,0,0,0h0.1l1,0.6l1,0.6c0.1,0.1,0.1,0.2,0.1,0.3
	l-0.1,0.1l-1,0.6l-1,0.6c-0.1,0.1-0.2,0-0.3-0.1c0,0,0,0,0,0c0,0,0-0.1,0-0.1V3.2c0-0.6-0.5-1.1-1.1-1.1c-0.2,0-0.4,0-0.5,0.1
	l-1.1,0.6l-1.1,0.6c-0.5,0.3-0.7,0.9-0.4,1.5c0.1,0.2,0.2,0.3,0.4,0.4L29.3,6l1.1,0.6c0.5,0.3,1.2,0.1,1.5-0.4C31.9,6,32,5.9,32,5.7
	V5.6c0-0.1,0-0.1-0.1-0.2l-0.5-0.3c-0.1-0.1-0.2,0-0.3,0.1c0,0,0,0,0,0c0,0,0,0.1,0,0.1v0.3c0,0.1-0.1,0.2-0.2,0.2c0,0,0,0,0,0
	c0,0-0.1,0-0.1,0l-1-0.6l-1-0.6c-0.1,0-0.2-0.2-0.1-0.3l0.1-0.1l1-0.6l1-0.6c0.1-0.1,0.2,0,0.3,0.1c0,0,0,0,0,0c0,0,0,0.1,0,0.1v0.2
	c0,0.6,0.5,1.1,1.1,1.1c0.2,0,0.4,0,0.5-0.1l1.1-0.6l1.1-0.6c0.5-0.3,0.7-1,0.3-1.5c0,0,0,0,0,0C35,1.6,34.9,1.5,34.8,1.4z"/>
<path d="M27.8,1.6l-2.5,5.1h-1l0.9-1.9l-1.5-3.2h1.1l0.9,2.2l1-2.1H27.8z"/>
<path d="M2.9,3.4c0-0.6-0.5-1-1-0.9c-0.6,0-1,0.5-0.9,1c0,0.5,0.5,0.9,1,0.9l0,0C2.5,4.4,2.9,4,2.9,3.4L2.9,3.4 M2.9,5.2V4.7
	C2.6,5.1,2.2,5.3,1.8,5.3C0.8,5.3,0,4.4,0,3.5c0,0,0,0,0,0V3.4c0-1,0.7-1.9,1.7-1.9c0,0,0,0,0,0l0,0c0.4,0,0.9,0.2,1.1,0.5V1.6h0.9
	v3.7H2.9z"/>
<path d="M8.2,4.4C7.9,4.4,7.8,4.3,7.8,4V2.4h0.6V1.6H7.8V0.7H6.9v0.9H5.7V1.2c0-0.3,0.1-0.4,0.4-0.4h0.2V0.1H5.9
	c-0.8,0-1.1,0.3-1.1,1v0.5H4.2v0.8h0.5v2.9h0.9V2.4h1.2v1.8c0,0.8,0.3,1.1,1,1.1h0.5V4.4H8.2z"/>
<path d="M11.5,3.1c-0.1-0.4-0.5-0.8-0.9-0.8c-0.5,0-0.8,0.3-0.9,0.8H11.5z M9.7,3.6c0,0.5,0.4,0.9,0.9,0.9c0.3,0,0.7-0.2,0.9-0.5
	h0.9c-0.2,0.8-1,1.3-1.8,1.3c-1,0.1-1.9-0.7-1.9-1.7V3.4c0-1,0.8-1.9,1.9-1.9s1.9,0.8,1.9,1.9c0,0,0,0,0,0l0,0c0,0.1,0,0.2,0,0.2
	L9.7,3.6z"/>
<path d="M18.3,3.4c0-0.6-0.5-1-1-1c-0.6,0-1,0.5-1,1s0.5,1,1,1C17.9,4.4,18.3,4,18.3,3.4L18.3,3.4 M15.4,6.7V1.6h0.9V2
	c0.3-0.3,0.7-0.5,1.2-0.5c1,0,1.8,0.8,1.8,1.8c0,0,0,0,0,0v0.1c0,1-0.7,1.9-1.7,1.9c0,0,0,0,0,0l0,0c-0.4,0-0.8-0.2-1.1-0.5v1.9
	L15.4,6.7z"/>
<path d="M22.5,3.4c0-0.6-0.5-1-1-0.9c-0.6,0-1,0.5-0.9,1.1c0,0.5,0.4,0.9,0.9,0.9h0C22,4.4,22.5,4,22.5,3.4L22.5,3.4 M22.5,5.2V4.7
	c-0.3,0.3-0.7,0.5-1.1,0.5c-1,0-1.8-0.8-1.8-1.8c0,0,0,0,0,0V3.4c0-1,0.7-1.9,1.7-1.9c0,0,0,0,0,0l0,0c0.4,0,0.9,0.2,1.1,0.5V1.6
	h0.9v3.7H22.5z"/>
<path d="M13.8,1.9c0.2-0.3,0.5-0.4,0.8-0.4c0.1,0,0.3,0,0.4,0.1v0.9c-0.2-0.1-0.4-0.2-0.6-0.2c-0.3,0.1-0.5,0.4-0.5,0.7v2.2h-0.9
	V1.6h0.9V1.9z"/>
</svg>
