<svg id="Layer_1" xmlns="http://www.w3.org/2000/svg" width="20" height="20" viewBox="0 0 20 20"><style>.st0twitter{fill:#002B5C;} .st1twitter{fill:#FFFFFF;}</style><title>twitter</title><g id="Page-1"><g id="Icons"><g id="twitter"><path id="Fill-1" class="st0twitter" d="M19.8 10c0 5.4-4.4 9.8-9.8 9.8S.2 15.4.2 10 4.6.2 10 .2s9.8 4.4 9.8 9.8"/><path id="Fill-2" class="st1twitter" d="M12.7 4.9c-1.5 0-2.6 1.2-2.6 2.6 0 .2 0 .4.1.6C7.9 8 6 7 4.7 5.4c-.3.4-.4.8-.4 1.3 0 .9.5 1.7 1.2 2.2-.5 0-.9-.1-1.2-.3 0 1.3.9 2.3 2.1 2.6-.2.1-.5.1-.7.1h-.5c.3 1.1 1.3 1.8 2.5 1.8-.9.7-2 1.1-3.3 1.1h-.6c1.2.7 2.6 1.2 4 1.2 4.9 0 7.5-4 7.5-7.5v-.3c.5-.4 1-.8 1.3-1.4-.5.2-1 .4-1.5.4.5-.3 1-.8 1.2-1.5-.5.3-1.1.5-1.7.6-.5-.5-1.2-.8-1.9-.8"/></g></g></g></svg>