<svg width="20" height="20" viewBox="0 0 20 20" xmlns="http://www.w3.org/2000/svg" xmlns:xlink="http://www.w3.org/1999/xlink"><title>youtube</title><defs><path id="a" d="M0 .004h10.997v13.188H0V.004z"/></defs><g fill="none" fill-rule="evenodd"><g><g><g fill="#002B5C"><circle cx="10" cy="10" r="10"/></g><g><g transform="translate(4.5 3)"><mask id="b" fill="#fff"><use xlink:href="#a"/></mask><path d="M3.21 7.215H.763c0 .162.006.316-.002.47-.005.1.03.125.125.122.21-.006.42-.002.64-.002v.166c0 1.276.002 2.55 0 3.825 0 .093.017.13.12.126.17-.008.343 0 .515-.002.135 0 .135 0 .135-.14V7.967c0-.145 0-.145.14-.145.227 0 .456.003.684-.002.03 0 .085-.033.086-.053.007-.18.004-.363.004-.55zm6.657 3.037c.007-.016.013-.023.013-.03-.013-.462-.016-.925-.045-1.387-.008-.115-.078-.242-.154-.336-.285-.352-.938-.35-1.304-.096-.293.203-.394.508-.408.838-.02.49-.027.982-.017 1.473.005.196.038.402.106.585.268.724 1.1.85 1.568.37.264-.27.32-.607.253-.97H9.31c0 .13.002.25-.002.373-.006.212-.144.33-.38.33-.23-.003-.353-.117-.354-.336-.002-.21 0-.42 0-.632v-.183h1.293zM5.032 8.43c-.212 0-.42.006-.625-.003-.108-.005-.134.027-.134.134.006.826.004 1.652.008 2.477.002.122-.044.21-.14.275-.104.07-.228.042-.272-.073-.033-.087-.045-.184-.046-.277-.003-.52 0-1.04 0-1.558 0-.295.002-.59-.002-.885 0-.03-.035-.086-.054-.086-.23-.006-.462-.004-.706-.004v.124c0 .82-.002 1.643.002 2.465 0 .18.01.364.036.545.03.217.16.337.373.366.333.048.604-.08.84-.3.037-.033.065-.076.12-.14 0 .138-.005.243 0 .346.002.027.03.075.046.075.185.006.37.004.556.004V8.43zm1.15 3.178c.126.083.243.165.365.24.31.19.656.08.81-.245.083-.173.12-.354.12-.54.007-.604.008-1.208.007-1.812 0-.128-.003-.26-.026-.387-.067-.368-.348-.67-.8-.517-.134.045-.256.124-.394.193v-.11c0-.373.003-.745 0-1.118 0-.035-.032-.1-.05-.1-.235-.007-.47-.004-.708-.004v4.677h.343c.278 0 .278 0 .333-.277zM1.58 13.192c-.09-.023-.182-.045-.273-.07-.754-.204-1.31-.854-1.305-1.69C.008 10.187.014 8.94 0 7.693c-.01-.96.703-1.675 1.612-1.773.084-.01.168-.016.252-.016h7.28c.493 0 .936.148 1.3.483.36.33.55.742.55 1.232.002 1.285.005 2.57 0 3.855-.006.833-.59 1.51-1.426 1.678-.05.01-.1.025-.15.04H1.58z" fill="#FFF" mask="url(#b)"/></g><path d="M6.166 3.004h.86c.165.575.332 1.152.5 1.73h.023l.495-1.728h.867c-.026.075-.048.147-.075.216-.28.7-.56 1.4-.838 2.1-.02.05-.028.108-.028.163-.002.85-.003 1.7 0 2.55 0 .097-.022.134-.126.13-.218-.008-.435-.002-.667-.002-.003-.046-.006-.087-.006-.127 0-.843 0-1.685-.003-2.528 0-.07-.017-.146-.044-.212-.31-.737-.623-1.472-.934-2.207-.01-.026-.016-.054-.026-.086M13.274 4.43v3.623h-.316c-.147 0-.295-.003-.442 0-.072.003-.094-.022-.083-.092.008-.053.007-.108.01-.19-.04.055-.064.086-.086.12-.177.276-.615.29-.81.07-.122-.14-.175-.312-.176-.494-.007-.976-.01-1.952-.017-2.928 0-.08.018-.114.105-.11.16.007.323.007.484 0 .093-.004.11.033.11.116-.002.867 0 1.735 0 2.602 0 .052.003.106.013.157.027.133.127.214.26.22.128.003.236-.076.27-.206.014-.05.018-.103.018-.155 0-.868.003-1.735-.002-2.602 0-.11.033-.138.137-.133.172.01.343.003.527.003M9.53 6.225h.003c0 .336-.003.673.002 1.01.002.15.107.275.248.316.128.04.273-.01.35-.145.043-.078.07-.177.07-.267.006-.606.004-1.213.003-1.82 0-.056-.005-.113-.02-.166-.037-.148-.177-.26-.317-.264-.13-.003-.274.097-.318.235-.018.06-.02.124-.02.186-.003.304-.002.61-.002.915M8.84 6.2c.022-.362.034-.716.068-1.068.026-.27.142-.503.366-.674.376-.286 1.177-.233 1.446.334.085.18.135.365.135.557.003.62.002 1.242-.02 1.862-.013.343-.15.642-.46.83-.173.107-.37.124-.57.115-.18-.008-.362-.027-.524-.126-.243-.15-.346-.387-.372-.65-.04-.394-.047-.79-.067-1.18M10.756 13.04v-.968c0-.196.122-.318.324-.317.19 0 .34.108.338.316-.006.65 0 1.3-.002 1.948 0 .2-.128.32-.334.32-.205-.002-.325-.124-.326-.33v-.967M13.443 12.647c-.095 0-.19-.002-.285 0-.06.003-.08-.02-.08-.08.005-.112 0-.225.007-.337.015-.224.163-.347.397-.337.187.008.328.164.33.366 0 .09-.01.182-.004.273.007.096-.034.123-.123.116-.08-.008-.162-.003-.242-.003" fill="#FFF"/></g></g></g></g></svg>