<svg id="Layer_1" xmlns="http://www.w3.org/2000/svg" viewBox="0 0 18 18"><style>.st0{fill-rule:evenodd;clip-rule:evenodd;fill:#002B5C;} .st1{fill:#002B5C;} .st2{fill:#FFFFFF;stroke:#002B5C;stroke-width:1.2992;}</style><path class="st0" d="M3.8 6.3c0-.1 0-.1 0 0 1.6-1 3.2-1.8 4.9-2.7H9c.5.3 1 .6 1.5.8 0 0 .1.1.2.1-.1.1-.1.1-.2.1-1.5.8-3 1.6-4.4 2.4-.4.2-.7.2-1 0-.4-.3-.9-.5-1.3-.7zM6.9 8c.1 0 .1 0 0 0 1.6-.9 3.3-1.8 4.9-2.7h.2c.6.3 1.2.6 1.8 1l-.1.1c-1.6.9-3.2 1.7-4.8 2.6h-.3c-.4-.3-.9-.6-1.4-.8-.1-.1-.2-.1-.3-.2zm1.2 7.6c-.1 0-.1-.1-.2-.1-1.6-.9-3.1-1.7-4.7-2.6-.1-.1-.2-.2-.2-.3V7.5v-.2h.1c.6.4 1.2.7 1.7 1 .1 0 .1.1.1.2v1.7c0 .1 0 .2.1.2.4.2.8.4 1.3.7v-2c.6.3 1.1.6 1.7.9.1 0 .1.1.1.2v5.4zm1.3 0v-.1-5.2c0-.1.1-.2.2-.2 1.5-.8 3-1.6 4.4-2.4.1-.1.3-.1.4-.2v5.3c0 .1-.1.2-.2.2-.7.4-1.5.8-2.2 1.2-.8.4-1.7.9-2.6 1.4zm-7.6-2.3c0 .2.1.3.2.3l6.6 3.6c.2.1.3.1.4 0l6.6-3.6c.1-.1.2-.1.2-.3V6c0-.1-.1-.2-.2-.3-2.2-1.1-4.4-2.3-6.6-3.5-.1-.1-.2-.1-.4 0-2.2 1.2-4.4 2.4-6.7 3.6-.1.1-.1.2-.1.3v7.2z"/><path class="st1" d="M8.2 12.7l.6 1 6.5-3.5-.6-1-6.5 3.5z"/><path class="st2" d="M8.4 6.3c.8-.5.9-1.9 0-3.3-.8-1.3-2.2-2-3-1.5-.8.5-.9 1.9 0 3.3.8 1.3 2.1 2 3 1.5z"/><path class="st2" d="M9.3 6.3c-.8-.5-.9-1.9 0-3.3.8-1.3 2.2-2.1 3-1.6.8.5.9 1.9 0 3.3-.8 1.4-2.1 2.1-3 1.6z"/><path class="st1" d="M2.4 8.8l-.6 1 6.5 3.5.6-1-6.5-3.5z"/><path class="st1" d="M6.2 10.9H4.8v3.7h1.4v-3.7z"/></svg>