<svg id="Layer_1" xmlns="http://www.w3.org/2000/svg" width="20" height="20" viewBox="0 0 20 20"><style>.st0insta{fill:#002B5C;} .st1insta{fill:#FFFFFF;}</style><title>instagram</title><g id="Page-1"><g id="Icons"><g id="instagram"><path id="Fill-12" class="st0insta" d="M19.8 10c0 5.4-4.4 9.8-9.8 9.8S.2 15.4.2 10 4.6.2 10 .2s9.8 4.4 9.8 9.8"/><path id="Fill-13" class="st1insta" d="M14.4 9.1h-1c.1.3.1.6.1.9 0 2-1.6 3.6-3.5 3.6-2 0-3.5-1.6-3.5-3.6 0-.3 0-.6.1-.9h-1V14c0 .2.2.4.4.4h8c.2 0 .4-.2.4-.4V9.1zm0-3.1c0-.2-.2-.4-.4-.4h-1.3c-.2 0-.4.2-.4.4v1.3c0 .2.2.4.4.4H14c.2 0 .4-.2.4-.4V6zM10 7.8c-1.2 0-2.2 1-2.2 2.2 0 1.2 1 2.2 2.2 2.2 1.2 0 2.2-1 2.2-2.2 0-1.2-1-2.2-2.2-2.2zm4.4 8H5.6c-.7 0-1.3-.6-1.3-1.3V5.6c0-.7.6-1.3 1.3-1.3h8.9c.7 0 1.3.6 1.3 1.3v8.9c0 .7-.6 1.3-1.4 1.3z"/></g></g></g></svg>