<svg id="Layer_1" xmlns="http://www.w3.org/2000/svg" width="20" height="20" viewBox="0 0 20 20"><style>.st0fb{fill:#002B5C;} .st1fb{filter:url(#Adobe_OpacityMaskFilter);} .st2fb{fill:#FFFFFF;} .st3fb{mask:url(#mask-2_1_);fill:#FFFFFF;}</style><title>facebook</title><g id="Page-1"><g id="Icons"><g id="facebook"><path id="Fill-3" class="st0fb" d="M19.8 10c0 5.4-4.4 9.8-9.8 9.8S.2 15.4.2 10 4.6.2 10 .2s9.8 4.4 9.8 9.8"/><g id="Group-6" transform="translate(.37 .5)"><defs><filter id="Adobe_OpacityMaskFilter" filterUnits="userSpaceOnUse" x="5.7" y="2.6" width="7.3" height="14"><feColorMatrix values="1 0 0 0 0 0 1 0 0 0 0 0 1 0 0 0 0 0 1 0"/></filter></defs><mask maskUnits="userSpaceOnUse" x="5.7" y="2.6" width="7.3" height="14" id="mask-2_1_"><g class="st1fb"><path id="path-1_1_" class="st2fb" d="M9.5 19.2c-5.4 0-9.8-4.4-9.8-9.8S4.1-.4 9.5-.4s9.8 4.4 9.8 9.8-4.4 9.8-9.8 9.8z"/></g></mask><path id="Fill-4" class="st3fb" d="M10.4 16.6v-6.4h2.1l.3-2.5h-2.5V6.1c0-.7.2-1.2 1.2-1.2H13V2.7c-.2 0-1-.1-1.9-.1-1.9 0-3.2 1.2-3.2 3.3v1.8H5.7v2.5h2.2v6.4h2.5"/></g></g></g></g></svg>