<?xml version="1.0" encoding="utf-8"?>
<!-- Generator: Adobe Illustrator 24.0.3, SVG Export Plug-In . SVG Version: 6.00 Build 0)  -->
<svg version="1.1" id="Layer_1" xmlns="http://www.w3.org/2000/svg" xmlns:xlink="http://www.w3.org/1999/xlink" x="0px" y="0px"
	 viewBox="0 0 600 77" style="enable-background:new 0 0 600 77;" xml:space="preserve">
<g>
	<g>
		<path style="fill:#0A2240;" d="M551.6,3.5C550.1,4,550,6,550.1,8.1c0,0,0,0,0,0l0,1.7c0,2.2,0.1,4.4,1.2,6.5
			c1.3,2.5,3.7,4.3,6.6,4.7c1.1,0.2,2.4,0.1,3.5,0c1.3-0.1,2.6-0.2,3.4,0.1c0.3,0.4-0.1,2.1-0.2,2.6l-0.1,0.6
			c-0.5,2.8-1.1,4.5-2.4,6.2c-1.7,2.1-4.2,3.6-7.8,4.7c-9.5,2.8-15-5.2-20.4-13l-3.1-4.4c-7-9.2-15.5-10.4-26.2-9.5
			c-4.2,0.4-8.6-0.3-12.9-0.9c-5-0.7-10.2-1.5-15.1-0.6c-11.5,1.9-16.8,9.3-15.5,21.4l0.6,3.8c0.6,3.1,1.2,6.1,0.2,9.6
			c-0.7,2.5-0.1,4.4,0.8,5.2c0,0.1-0.1,0.8-0.2,1.1l-0.1,1.2c0,4.4,6.6,7.4,9,8c7.2,2.1,14.7,1.6,22.1,1.2l1.4-0.1
			c6.8-0.4,13.7-0.2,20.5-0.1l10.2,0.1l5.5,0c5.3,0.1,9.9,0.1,15.8-0.5c7-0.7,17.5-1.8,21.8-9c2.9-5,4.2-12,4.5-14
			c0,0,0.5-4.1,0.5-4.1c0.3-2.5,0.6-4.9,1.2-7.2c4.2,1.2,6.6,1,10.1-0.7c3.2-1.6,5.1-5.4,6.7-8.7l0.7-1.5l1.3-3.1l1-2.4
			c0.2-0.5,0.1-1.1-0.2-1.5c-0.4-0.4-0.9-0.6-1.4-0.4l-1.5,0.5c-1.4,0.5-2.8,0.9-4.2,1c-2.4,0.2-4.9-0.4-7-1
			c-4.7-1.3-7.7,0.2-9.5,1.9c-0.3-0.3-0.7-0.6-0.7-0.6c-1-0.9-2-1.9-3.6-2.5c-3.3-1.3-5.8-0.4-8.4,0.5l-0.2,0.1
			c-1.3,0.5-3,0.5-3.9-0.3C553.8,4.1,552.8,3.1,551.6,3.5"/>
		<path style="fill:#EC9BAD;" d="M559,7.4l0.2-0.1c2.5-0.9,4.2-1.5,6.5-0.6c1.1,0.4,1.9,1.2,2.8,2l1.8,1.6c0.3,0.2,0.6,0.3,1,0.3
			c0.4,0,0.7-0.3,0.9-0.5c1.8-2.3,4.3-2.9,7.6-2c2.3,0.6,5.1,1.3,7.9,1.1c1.3-0.1,2.5-0.4,3.6-0.7c-0.1,0.2-1.2,2.8-1.2,2.8
			c0,0-0.8,1.6-0.8,1.6c-1.4,2.9-3,6.3-5.4,7.5c-3,1.5-4.7,1.7-9.4,0.2c-0.7-0.2-1.5,0.2-1.7,0.9c-1,2.9-1.3,6-1.7,9l-0.5,4
			c-0.8,5.1-2.4,10-4.2,13.1c-3.6,6-13.3,7-19.8,7.7c-5.7,0.6-10.2,0.5-15.5,0.5l-5.6-0.1l-10.2-0.1c-6.8-0.1-13.8-0.3-20.7,0.1
			c0,0-1.5,0.1-1.5,0.1c-7.1,0.4-14.4,0.8-21.1-1.1c-3.3-1-7-3.5-7-5.4c0,0,0.1-0.8,0.1-0.8c0.2-1.1,0.4-2.7-0.8-3.7
			c0-0.1-0.3-0.9,0.1-2.3c1.2-4.2,0.5-7.7-0.1-10.9l-0.6-3.6C462.6,17,467,11,477,9.3c4.6-0.8,9.3-0.1,14.3,0.6
			c4.4,0.6,9,1.3,13.5,0.9c11.9-1,18.4,1.2,23.8,8.4l3.1,4.3c5.3,7.8,12,17.5,23.4,14.1c4-1.2,7-3,9.1-5.5c1.9-2.3,2.5-4.8,3-7.4
			c0,0,0.1-0.5,0.1-0.5c0.4-1.7,1.1-4.9-1.6-5.8c-1.4-0.5-3-0.3-4.6-0.2c-1.1,0.1-2.1,0.2-2.9,0.1c-2-0.3-3.7-1.5-4.6-3.3
			c-0.8-1.5-0.8-3.4-0.9-5.3l-0.1-1.8c0-0.3,0-0.6,0-0.9c0-0.1,0-0.1,0-0.2C554.6,8.2,557.2,8,559,7.4"/>
		<path style="fill:#0A2240;" d="M502.1,44.2c-0.2-0.2-0.5-0.3-0.8-0.1c-0.2,0.2-0.3,0.5-0.1,0.8c0.3,0.4,0.6,0.7,0.8,1.1l-0.5,0.1
			c-22.1,3.7-32.7,1.2-37.7-1.6c-0.3-0.1-0.6-0.1-0.7,0.2c-0.1,0.3-0.1,0.6,0.2,0.7c7.5,4.2,20.4,4.8,38.4,1.7l0.8-0.1
			c0.1,0.4,0.1,0.8,0,1.2c-0.1,0.3,0,0.6,0.3,0.7c0.3,0.1,0.6,0,0.7-0.3C504.2,46.7,503,45.2,502.1,44.2 M489.8,34.6
			c-1-0.2-1.9,0.4-2.2,1.3c-0.2,1-1.6,2.1,1.3,2.2c3.6,0.1,1.9-0.4,2.2-1.3C491.3,35.8,490.7,34.8,489.8,34.6 M485.9,30.7
			c0,0,1.5-1.8,3.4-1.5c1.7,0.2,3.2,1.8,4.7,4.7c0.1,0.3,0.5,0.4,0.7,0.2c0.3-0.1,0.4-0.5,0.2-0.7c-1.6-3.3-3.5-5-5.5-5.3
			c-2.5-0.3-4.3,1.8-4.3,1.9c-0.2,0.2-0.2,0.6,0.1,0.8C485.4,31,485.7,31,485.9,30.7"/>
	</g>
	<g>
		<path style="fill:#0A2240;" d="M250.1,56.2c4.9,0,8.5-2.3,10.9-5.4c0.3,1.4,1,4.5,1.4,5.4l11.8-2.2v-1.9c-5.9,0-7-1.5-7-10.4V6.6
			l-13.4,2.2v1.9c6,0,7,1.5,7,10.4v7.7c-2.7-3.3-6.4-5.3-10.9-5.3c-8.5,0-15.5,7.3-15.5,16.3C234.6,48.8,241.6,56.2,250.1,56.2z
			 M251.9,27.1c4,0,7.4,2.8,9,7v11.5c-1.6,4.2-5,7-9,7c-6.9,0-10.2-5.7-10.2-12.8C241.8,32.7,245,27.1,251.9,27.1z"/>
		<path style="fill:#0A2240;" d="M122.6,56.2c5.1,0,10.5-2.6,13.6-5.9l-1.6-2c-2.6,2.4-6.9,4.1-9.8,4.1c-9.2,0-12.6-6.5-11.6-14.9
			h21.5c2.1-7.7-4.2-14.1-12.1-14.1c-8.3,0-16.5,6.9-16.5,16.3C106.1,48.8,112.8,56.2,122.6,56.2z M122.1,27.1
			c5.9,0,7.4,4.4,6.4,7.2h-14.8C115,29.9,118.3,27.1,122.1,27.1z"/>
		<path style="fill:#0A2240;" d="M159.4,26.8c3.7,0,4.3,1.2,2.6,5.3l-5.7,14.2l-6.5-14.2c-2-4.4-1.1-5.3,2.9-5.3V25h-15.8v1.8
			c2.8,0,4.2,1.3,6,5.3l10.2,22.2l-1.8,5.4c-2.7,6.9-6.7,6.9-6.7,10.4c0,2.2,1.7,2.9,2.9,2.9c1.4,0,2.6-1.5,3.3-3.3l14.7-37.6
			c1.6-3.9,3.6-5.3,6.3-5.3V25h-12.5V26.8z"/>
		<path style="fill:#0A2240;" d="M437.8,38l-4.3-2.3c-3.9-2.1-5.4-3.3-5.4-5.4c0-2.2,1.5-3.8,4.5-3.8c4.5,0,7.2,3.7,7.2,7.5h1.9
			V23.5h-1.9c0,4.6-1.3,0-8,0c-4.6,0-9.1,3.3-9.1,8.1c0,2.9,1.6,6.6,6,8.9l4.9,2.7c3.1,1.6,5,3.2,5,5.4c0,2.5-2.1,4.5-5,4.5
			c-6.4,0-9.8-6-9.8-10H422v13h1.8c0-6.3,3.4,0,9.5,0c5.8,0,10.6-3.8,10.6-9.7C443.9,43.3,441.7,40.2,437.8,38z"/>
		<path style="fill:#0A2240;" d="M96.1,42.4v-5.6c0-7.6-3.6-13.3-11.6-13.3c-5.9,0-10,3.4-12.4,6.4c-0.3-1.9-1.1-5.5-1.5-6.4
			l-11.8,2.2v1.9c5.9,0,7,1.4,7,10.3v4.4c0,8.2-1,10.1-5.8,10.4v1.9h18.3v-1.9c-5.5,0-6.2-1.2-6.2-10.4v-5.8c0-4.9,5.3-8.9,10.2-8.9
			c5.3,0,7.4,3.7,7.4,9.5v5.2c0,8.9-1.2,10.4-7,10.4v1.9h20.4v-1.9C97.2,52.8,96.1,51.3,96.1,42.4z"/>
		<path style="fill:#0A2240;" d="M226.9,23.5c-3.3,0-7.1,2.9-8.8,6.4v0c-0.3-1.9-1.1-5.5-1.5-6.4l-11.8,2.2v1.9c5.9,0,7,1.4,7,10.3
			v4.4c0,8.9-1.2,10.4-7,10.4v1.9h20.4v-1.9c-6,0-7-1.5-7-10.4V37c0.3-6.7,4.5-9.9,6.4-9.9c1.7,0,2.7,1.1,2.7,3
			c0,1.7,1.3,3.3,2.9,3.3c2.6,0,3.4-2.3,3.4-4.3C233.5,26.9,231.5,23.5,226.9,23.5z"/>
		<path style="fill:#0A2240;" d="M201.1,51.8c-0.5,0.4-1.2,0.7-1.8,0.7c-1.3,0-2-1.2-2-3.5V35.6c0-8.5-3.6-12.1-12.2-12.1
			c-5.7,0-11.3,2.8-11.3,7.1c0,1.8,1.3,3.1,3.1,3.1c1.7,0,3-1.3,3-3.1c0-2.9,3-4.3,5.1-4.3c5.1,0,6,2.7,6,9.4
			c-10.2,1.8-19,5.1-19,12.6c0,4.7,3.7,7.5,8,7.5c3.6,0,6.8-1.4,11.1-5.3c0.4,3.2,2.6,5.2,6.1,5.2c1.7,0,3.7-0.8,5.2-2.2L201.1,51.8
			z M191,47.6c-4.1,3.7-6.2,4.3-8.1,4.3c-2.2,0-4.2-1.7-4.2-4.5c0-3.9,3.8-6.9,12.3-8.8V47.6z"/>
		<path style="fill:#0A2240;" d="M34.9,28.4C34.9,28.4,34.9,28.4,34.9,28.4c0.8-0.8,1.9-1.4,3.1-1.5v-2.2H26.6v2.1
			c3.9,0,4.2,1.4,2.6,5.3l-6,14.2l-6.3-14.2c-1.8-4.3-1.2-5.3,2.8-5.3v-2.1H3.8v2.1c3,0,4.4,1.4,6.1,5.3l10.2,22.6h3.2l9.4-22.6
			C33.3,30.5,34,29.3,34.9,28.4C34.8,28.5,34.8,28.5,34.9,28.4z"/>
		<path style="fill:#0A2240;" d="M47.8,16.5c2.1,0,3.9-1.8,3.9-4c0-2.1-1.8-3.9-3.9-3.9c-2.1,0-3.9,1.8-3.9,3.9
			C43.9,14.8,45.7,16.5,47.8,16.5z M56.6,52.8c-0.2,0-0.4,0-0.6,0c-4.1-0.4-5-2.6-5-10.3v-0.7h0V23.5l-11,1.2v2.2
			c3.9,0.6,4.7,2.9,4.7,10.2v5.3c0,8.9-1.2,10.4-7,10.4v1.9h20.4v-1.9C57.5,52.8,57,52.8,56.6,52.8z"/>
		<path style="fill:#0A2240;" d="M401.8,56.2c5.1,0,10.5-2.6,13.6-5.9l-1.6-2c-2.6,2.4-6.9,4.1-9.8,4.1c-9.2,0-12.6-6.5-11.6-14.9
			h21.5c2.1-7.7-4.2-14.1-12.1-14.1c-8.3,0-16.5,6.9-16.5,16.3C385.4,48.8,392,56.2,401.8,56.2z M401.4,27.1c5.9,0,7.4,4.4,6.4,7.2
			H393C394.3,29.9,397.6,27.1,401.4,27.1z"/>
		<path style="fill:#0A2240;" d="M375.4,42.4v-5.6c0-7.6-3.6-13.3-11.6-13.3c-5.9,0-10,3.4-12.4,6.4c-0.3-1.9-1.1-5.5-1.5-6.4
			l-11.8,2.2v1.9c5.9,0,7,1.4,7,10.3v4.4c0,8.2-1,10.1-5.8,10.4v1.9h18.3v-1.9c-5.5,0-6.2-1.2-6.2-10.4v-5.8c0-4.9,5.3-8.9,10.2-8.9
			c5.3,0,7.4,3.7,7.4,9.5v5.2c0,8.9-1.2,10.4-7,10.4v1.9h20.4v-1.9C376.5,52.8,375.4,51.3,375.4,42.4z"/>
		<path style="fill:#0A2240;" d="M314.1,28.4C314.1,28.4,314.1,28.4,314.1,28.4c0.8-0.8,1.9-1.4,3.1-1.5v-2.2h-11.4v2.1
			c3.9,0,4.2,1.4,2.6,5.3l-6,14.2l-6.3-14.2c-1.8-4.3-1.3-5.3,2.8-5.3v-2.1h-15.9v2.1c3,0,4.5,1.4,6.1,5.3l10.2,22.6h3.2l9.4-22.6
			C312.6,30.5,313.3,29.3,314.1,28.4C314.1,28.5,314.1,28.5,314.1,28.4z"/>
		<path style="fill:#0A2240;" d="M327.1,16.5c2.1,0,3.9-1.8,3.9-4c0-2.1-1.8-3.9-3.9-3.9c-2.1,0-3.9,1.8-3.9,3.9
			C323.2,14.8,324.9,16.5,327.1,16.5z M335.8,52.8c-0.2,0-0.4,0-0.6,0c-4.1-0.4-5-2.6-5-10.3v-0.7h0V23.5l-11,1.2v2.2
			c3.9,0.6,4.7,2.9,4.7,10.2v5.3c0,8.9-1.2,10.4-7,10.4v1.9h20.4v-1.9C336.8,52.8,336.3,52.8,335.8,52.8z"/>
	</g>
</g>
</svg>
