<svg width="18" height="18" viewBox="0 0 18 18" xmlns="http://www.w3.org/2000/svg"><title>Artboard</title><g fill="none" fill-rule="evenodd"><g fill="#002B5C" fill-rule="nonzero"><path d="M3.156 5.924c-.67 0-1.214.53-1.214 1.183v6.468c0 .654.543 1.184 1.214 1.184H14.87c.67 0 1.215-.53 1.215-1.185V7.107c0-.654-.544-1.183-1.215-1.183H3.156zm0-1.86H14.87c1.726 0 3.124 1.362 3.124 3.043v6.468c0 1.68-1.398 3.044-3.124 3.044H3.156c-1.725 0-3.124-1.364-3.124-3.045V7.107c0-1.68 1.4-3.044 3.124-3.044z"/><path d="M11.01 4.063c0-.653-.545-1.183-1.216-1.183H8.232c-.67 0-1.214.53-1.214 1.183V14.76h3.99V4.062zm-5.9 0c0-1.68 1.397-3.043 3.122-3.043h1.562c1.725 0 3.124 1.362 3.124 3.043V16.62h-7.81V4.062z"/></g></g></svg>